#!OML:ASF E:/inclinewalkrobotboard/Project1/Captureday1/Session1/subject1.ASF
:FULLY-SPECIFIED
:DEGREES
76
root 0 0 0 -6.2237440985034045 -35.75967889913737 6.161087532394905
lowerback 11.37538075628526 0.36088166030998176 -3.4505686625028407
upperback 5.489141443908148 -0.020897224772945422 -1.5354401432273024
thorax -0.4764960156527036 -0.05198167951938587 0.321519760730767
lowerneck 3.2281792671754657 -0.2993568897858081 -7.809442074180451
upperneck 6.877107096187296 -0.8202176665522503 8.484305480508535
head 1.77581552882756 -0.6017736930952879 4.1670293082168275
rclavicle 1.9347998987741313E-16 4.565450630648539E-16
rhumerus 16.149666317364723 26.623203738235354 -71.78867451276534
rradius 101.02194667266947
rwrist -17.890175260579444
rhand -38.71040208993024 -21.36010417443359
rfingers 7.125019999999958
rthumb -11.67224100174302 -50.85347049927779
lclavicle -2.6809265024249204E-15 6.234166064781587E-16
lhumerus -25.55045605927068 -9.699903659948856 82.46083876736458
lradius 33.48196466192767
lwrist -24.542575434836166
lhand -4.580982033561561 21.397511636949723
lfingers 7.088190901594966
lthumb 20.950952317113725 59.761190700174765
rfemur -14.060285185502934 14.566100102616328 14.609091286980133
rtibia 32.47739647293097
rfoot -19.264744265237606 -12.482848915160842
rtoes -8.126690726057511
lfemur -19.815096122511573 1.7742715091368497 -12.577235495694776
ltibia 48.687295131953945
lfoot -14.030635379850505 6.127563768759903
ltoes -7.630212278213847
77
root 0 0 0 -6.002548008099318 -35.43095008857942 6.086867650189009
lowerback 11.414553551794812 0.4501017886541786 -3.3348071950477083
upperback 5.4983426346055415 0.10336538785766103 -1.5684112029533803
thorax -0.4892049564439096 0.009533304203485138 0.20979954022794225
lowerneck 3.189614143848731 -0.20331600298073127 -7.704394552002453
upperneck 6.842279261380402 -0.6677253301385564 8.290594710811682
head 1.7665524849785528 -0.5285777860050263 4.100358563813557
rclavicle 1.8894362798814595E-16 4.487708902851029E-16
rhumerus 16.190463994132443 26.427299668477616 -71.70513180510974
rradius 100.75462623761851
rwrist -17.68702293241144
rhand -38.64341798805631 -21.228713643568646
rfingers 7.125019999999958
rthumb -11.607752650175163 -50.72490433014638
lclavicle -2.6288577020672813E-15 5.956921057908206E-16
lhumerus -25.09171323575223 -9.257185297062483 82.03796444866472
lradius 33.32893423037232
lwrist -24.41863747956321
lhand -4.801701759584114 21.382772861197548
lfingers 7.088181920682783
lthumb 20.73610716795809 59.74395998362411
rfemur -14.013349961292171 14.451692868956606 14.687868851788147
rtibia 32.59733126995297
rfoot -19.296546397140105 -12.548654158797376
rtoes -8.074629272518564
lfemur -20.31747244947847 1.7297155542823255 -12.41138335344267
ltibia 49.056444098380695
lfoot -13.570735444381995 5.7708234790597155
ltoes -7.733041363946912
78
root 0 0 0 -5.753513889458029 -34.95910124959322 6.001429677643899
lowerback 11.431551234177377 0.5513444349971297 -3.1951936291692826
upperback 5.496215681078823 0.2465805373766385 -1.6028035871677426
thorax -0.5020307663460448 0.0805466200629894 0.08153737542377673
lowerneck 3.118340708448299 -0.07312650401977017 -7.564429921855251
upperneck 6.883897188597033 -0.4658316392257733 8.025449626265129
head 1.7834047758811402 -0.4311952752625978 4.0080659251889585
rclavicle 1.8378245313904237E-16 4.4283313424601125E-16
rhumerus 16.162644422144325 26.290412993223953 -71.66476318225385
rradius 100.47240233733216
rwrist -17.48297827788264
rhand -38.5544686942712 -21.094492087440507
rfingers 7.125019999999959
rthumb -11.5219243203712 -50.59276406430001
lclavicle -2.5557765971922974E-15 5.615939410046668E-16
lhumerus -24.60216813382123 -8.795097603497796 81.59058702574717
lradius 33.179526847413634
lwrist -24.272172337835414
lhand -5.040785775257069 21.36987036802585
lfingers 7.088144234832821
lthumb 20.503411842051293 59.72222512989048
rfemur -13.913398395840664 14.35323208741435 14.78794045737298
rtibia 32.667086380558686
rfoot -19.36503731318964 -12.625051059512494
rtoes -8.029971672771392
lfemur -20.943049578314653 1.7061044364143485 -12.216142470037568
ltibia 49.57292168690109
lfoot -13.032903645791755 5.32374928205119
ltoes -7.877817415597556
79
root 0 0 0 -5.473528586880115 -34.28660083327223 5.9083888183810345
lowerback 11.411738564274664 0.6653910010848822 -3.021271148425585
upperback 5.474768393844075 0.41154435637548265 -1.635688488573306
thorax -0.5153567666592387 0.16252287181193414 -0.06643848111931239
lowerneck 2.9918859110430454 0.11000462153117496 -7.370110661124647
upperneck 7.051858081323244 -0.18764637494407088 7.649907067110157
head 1.8432864963717464 -0.2964902573553574 3.8756852630132435
rclavicle 1.827486853367161E-16 4.355148168177615E-16
rhumerus 16.1265043320317 26.170501682945314 -71.63299611355895
rradius 100.20324628507223
rwrist -17.290056532477312
rhand -38.46706881547358 -20.967436919726076
rfingers 7.125019999999959
rthumb -11.437610329561316 -50.46769354514578
lclavicle -2.4742314913590505E-15 5.24283621418975E-16
lhumerus -24.09215258304406 -8.323170981961713 81.1282960502611
lradius 33.03818490295285
lwrist -24.10932090379896
lhand -5.2905908640711115 21.359574497310767
lfingers 7.088112843897698
lthumb 20.260353499118985 59.69893872642961
rfemur -13.6994266374819 14.284654223638423 14.940075744939378
rtibia 32.63716094759942
rfoot -19.494007338635758 -12.71382258907134
rtoes -7.985011173747745
lfemur -21.669534651661724 1.6785018247855756 -11.988562426838614
ltibia 50.1750669997017
lfoot -12.409118314123736 4.802997477219707
ltoes -8.050639860717414
